<?xml version="1.0" encoding="UTF-8"?>
<svg id="Layer_2" data-name="Layer 2" xmlns="http://www.w3.org/2000/svg" xmlns:xlink="http://www.w3.org/1999/xlink" viewBox="0 0 310.11 310.11">
  <defs>
    <style>
      .cls-1 {
        fill: url(#linear-gradient);
      }

      .cls-2 {
        fill: #fff;
      }

      .cls-3 {
        fill: #2d2d2d;
      }
    </style>
    <linearGradient id="linear-gradient" x1="0" y1="155.05" x2="310.11" y2="155.05" gradientTransform="translate(155.05 -64.22) rotate(45)" gradientUnits="userSpaceOnUse">
      <stop offset="0" stop-color="#019780"/>
      <stop offset=".51" stop-color="#078086"/>
      <stop offset="1" stop-color="#144f95"/>
    </linearGradient>
  </defs>
  <g id="OBJECTS">
    <g>
      <rect class="cls-1" x="36.42" y="36.43" width="237.26" height="237.26" rx="30.69" ry="30.69" transform="translate(-64.23 155.05) rotate(-45)"/>
      <rect class="cls-2" x="63.22" y="63.22" width="183.67" height="183.67" rx="5.56" ry="5.56" transform="translate(-64.23 155.05) rotate(-45)"/>
      <g>
        <path d="M119.52,204.26h-31.42c.36-3.1,1.45-6.02,3.28-8.75,1.83-2.73,5.25-5.96,10.27-9.68,3.07-2.28,5.03-4.01,5.89-5.19,.86-1.18,1.29-2.31,1.29-3.37,0-1.15-.42-2.13-1.27-2.94-.85-.81-1.92-1.22-3.2-1.22s-2.43,.42-3.28,1.26c-.85,.84-1.42,2.32-1.71,4.45l-10.49-.85c.41-2.95,1.17-5.25,2.26-6.9s2.64-2.92,4.64-3.81c2-.88,4.76-1.32,8.29-1.32s6.55,.42,8.6,1.26c2.05,.84,3.66,2.13,4.83,3.87s1.76,3.69,1.76,5.85c0,2.3-.67,4.49-2.02,6.58s-3.79,4.39-7.34,6.89c-2.11,1.46-3.52,2.48-4.23,3.06-.71,.58-1.55,1.35-2.51,2.29h16.35v8.54Z"/>
        <path d="M123.88,185.26c0-7.16,1.29-12.18,3.87-15.04,2.58-2.86,6.51-4.29,11.79-4.29,2.54,0,4.62,.31,6.25,.94,1.63,.62,2.96,1.44,3.99,2.44,1.03,1,1.84,2.06,2.43,3.16,.59,1.11,1.07,2.4,1.43,3.87,.7,2.81,1.05,5.74,1.05,8.79,0,6.84-1.16,11.84-3.47,15.01s-6.3,4.76-11.96,4.76c-3.17,0-5.73-.51-7.69-1.52-1.95-1.01-3.56-2.49-4.81-4.45-.91-1.39-1.62-3.29-2.12-5.69s-.76-5.07-.76-7.98Zm10.39,.03c0,4.8,.42,8.08,1.27,9.83,.85,1.76,2.08,2.63,3.69,2.63,1.06,0,1.98-.37,2.76-1.12,.78-.75,1.35-1.92,1.72-3.54,.37-1.61,.55-4.12,.55-7.53,0-5-.42-8.37-1.27-10.09-.85-1.72-2.12-2.58-3.82-2.58s-2.98,.88-3.75,2.64-1.16,5.01-1.16,9.76Z"/>
        <path d="M182.63,165.93v38.33h-10.59v-25.12c-1.71,1.3-3.37,2.36-4.98,3.16s-3.61,1.58-6.03,2.31v-8.59c3.56-1.15,6.33-2.53,8.3-4.14,1.97-1.61,3.51-3.6,4.63-5.96h8.66Z"/>
        <path d="M200.21,184c-1.65-.87-2.85-1.85-3.6-2.93-1.03-1.47-1.54-3.17-1.54-5.09,0-3.15,1.48-5.73,4.45-7.74,2.31-1.54,5.37-2.31,9.18-2.31,5.04,0,8.76,.96,11.17,2.88,2.41,1.92,3.61,4.34,3.61,7.25,0,1.7-.48,3.28-1.44,4.76-.72,1.1-1.85,2.16-3.39,3.19,2.04,.98,3.56,2.27,4.56,3.88s1.5,3.39,1.5,5.35-.43,3.65-1.3,5.28c-.87,1.64-1.93,2.9-3.19,3.79-1.26,.89-2.83,1.55-4.71,1.97s-3.88,.63-6,.63c-3.99,0-7.04-.47-9.15-1.41-2.11-.94-3.71-2.33-4.81-4.17s-1.65-3.88-1.65-6.14,.51-4.08,1.54-5.62,2.61-2.72,4.76-3.56Zm4.14,8.82c0,1.66,.51,3.02,1.52,4.07,1.01,1.05,2.17,1.58,3.47,1.58s2.37-.54,3.37-1.61,1.49-2.43,1.49-4.08-.5-3.02-1.5-4.09c-1-1.06-2.16-1.59-3.48-1.59s-2.44,.51-3.41,1.54c-.97,1.03-1.45,2.42-1.45,4.17Zm.57-16.22c0,1.3,.41,2.35,1.22,3.15,.81,.8,1.9,1.2,3.25,1.2,1.2,0,2.19-.39,2.96-1.18,.77-.79,1.16-1.81,1.16-3.06s-.4-2.36-1.21-3.18c-.81-.81-1.83-1.22-3.08-1.22s-2.3,.4-3.1,1.2c-.8,.8-1.2,1.83-1.2,3.1Z"/>
      </g>
      <g>
        <path class="cls-3" d="M185.06,105.07c0,16.57-13.43,30-30,30s-30-13.43-30-30,13.43-30,30-30,30,13.43,30,30Z"/>
        <path class="cls-2" d="M179.46,105.07c0,13.48-10.93,24.41-24.41,24.41s-24.41-10.93-24.41-24.41,10.93-24.41,24.41-24.41,24.41,10.93,24.41,24.41Z"/>
        <circle class="cls-3" cx="155.63" cy="106.43" r="1.65"/>
        <rect class="cls-3" x="149.98" y="85.95" width="1.67" height="21.61" transform="translate(-27.31 77.35) rotate(-26.47)"/>
        <rect class="cls-3" x="152.01" y="99.11" width="17.44" height="1.67" transform="translate(-14.38 171.77) rotate(-54.18)"/>
      </g>
    </g>
  </g>
</svg>