<?xml version="1.0" encoding="UTF-8"?>
<svg id="Layer_2" data-name="Layer 2" xmlns="http://www.w3.org/2000/svg" xmlns:xlink="http://www.w3.org/1999/xlink" viewBox="0 0 310.11 310.11">
  <defs>
    <style>
      .cls-1 {
        fill: url(#linear-gradient);
      }

      .cls-2 {
        fill: #fff;
      }

      .cls-3 {
        fill: #2d2d2d;
      }
    </style>
    <linearGradient id="linear-gradient" x1="0" y1="155.05" x2="310.11" y2="155.05" gradientTransform="translate(155.05 -64.22) rotate(45)" gradientUnits="userSpaceOnUse">
      <stop offset="0" stop-color="#019680"/>
      <stop offset=".51" stop-color="#078086"/>
      <stop offset="1" stop-color="#135394"/>
    </linearGradient>
  </defs>
  <g id="OBJECTS">
    <g>
      <rect class="cls-1" x="36.42" y="36.43" width="237.26" height="237.26" rx="30.69" ry="30.69" transform="translate(-64.23 155.05) rotate(-45)"/>
      <rect class="cls-2" x="63.22" y="63.22" width="183.67" height="183.67" rx="5.56" ry="5.56" transform="translate(-64.23 155.05) rotate(-45)"/>
      <path class="cls-3" d="M155.24,77.99c-16.49,0-29.86,13.37-29.86,29.86s13.37,29.86,29.86,29.86,29.86-13.37,29.86-29.86-13.37-29.86-29.86-29.86Zm4.27,51.61v6.73h-7.27v-6.48c-6.06-.43-11.82-2.18-15.33-4.61l3.94-8.85c3.76,2.48,9.09,4.18,14,4.18s6.91-1.39,6.91-3.45c0-6.73-24.12-1.82-24.12-17.57,0-6.66,4.79-12.3,14.6-13.51v-6.67h7.27v6.54c4.49,.36,8.91,1.58,12.3,3.57l-3.7,8.91c-4.06-2.18-8.06-3.27-11.76-3.27-5.03,0-6.85,1.7-6.85,3.82,0,6.48,24.06,1.63,24.06,17.27,0,6.43-4.61,12-14.06,13.39Z"/>
      <g>
        <path d="M117.96,204.26h-31.42c.36-3.1,1.45-6.02,3.28-8.75,1.83-2.73,5.25-5.96,10.27-9.68,3.07-2.28,5.03-4.01,5.89-5.19,.86-1.18,1.29-2.31,1.29-3.37,0-1.15-.42-2.13-1.27-2.94-.85-.81-1.92-1.22-3.2-1.22s-2.43,.42-3.28,1.26c-.85,.84-1.42,2.32-1.71,4.45l-10.49-.85c.41-2.95,1.17-5.25,2.26-6.9s2.64-2.92,4.64-3.81c2-.88,4.76-1.32,8.29-1.32s6.55,.42,8.6,1.26c2.05,.84,3.66,2.13,4.83,3.87s1.76,3.69,1.76,5.85c0,2.3-.67,4.49-2.02,6.58s-3.79,4.39-7.34,6.89c-2.11,1.46-3.52,2.48-4.23,3.06-.71,.58-1.55,1.35-2.51,2.29h16.35v8.54Z"/>
        <path d="M122.43,185.26c0-7.16,1.29-12.18,3.87-15.04,2.58-2.86,6.51-4.29,11.79-4.29,2.54,0,4.62,.31,6.25,.94,1.63,.62,2.96,1.44,3.99,2.44,1.03,1,1.84,2.06,2.43,3.16,.59,1.11,1.07,2.4,1.43,3.87,.7,2.81,1.05,5.74,1.05,8.79,0,6.84-1.16,11.84-3.47,15.01s-6.3,4.76-11.96,4.76c-3.17,0-5.73-.51-7.69-1.52-1.95-1.01-3.56-2.49-4.81-4.45-.91-1.39-1.62-3.29-2.12-5.69s-.76-5.07-.76-7.98Zm10.39,.03c0,4.8,.42,8.08,1.27,9.83,.85,1.76,2.08,2.63,3.69,2.63,1.06,0,1.98-.37,2.76-1.12,.78-.75,1.35-1.92,1.72-3.54,.37-1.61,.55-4.12,.55-7.53,0-5-.42-8.37-1.27-10.09-.85-1.72-2.12-2.58-3.82-2.58s-2.98,.88-3.75,2.64-1.16,5.01-1.16,9.76Z"/>
        <path d="M181.28,165.93v38.33h-10.59v-25.12c-1.71,1.3-3.37,2.36-4.98,3.16s-3.61,1.58-6.03,2.31v-8.59c3.56-1.15,6.33-2.53,8.3-4.14,1.97-1.61,3.51-3.6,4.63-5.96h8.66Z"/>
        <path d="M193.14,195.8l10.41-1.31c.27,1.46,.74,2.49,1.39,3.08,.65,.6,1.45,.9,2.39,.9,1.68,0,2.99-.85,3.93-2.54,.69-1.25,1.2-3.9,1.54-7.94-1.25,1.29-2.54,2.23-3.86,2.83-1.32,.6-2.84,.9-4.58,.9-3.38,0-6.23-1.2-8.55-3.6-2.32-2.4-3.48-5.43-3.48-9.1,0-2.5,.59-4.78,1.77-6.84s2.81-3.61,4.88-4.67c2.07-1.05,4.68-1.58,7.82-1.58,3.77,0,6.8,.65,9.08,1.94,2.28,1.29,4.1,3.35,5.46,6.17s2.04,6.54,2.04,11.17c0,6.8-1.43,11.79-4.29,14.95-2.86,3.16-6.83,4.74-11.9,4.74-3,0-5.37-.35-7.1-1.04-1.73-.69-3.17-1.71-4.32-3.05s-2.03-3.01-2.65-5.01Zm19.28-16.81c0-2.04-.51-3.64-1.54-4.79-1.03-1.16-2.28-1.74-3.75-1.74-1.39,0-2.54,.52-3.46,1.57-.92,1.04-1.38,2.61-1.38,4.7s.48,3.72,1.43,4.83,2.14,1.67,3.56,1.67,2.7-.54,3.68-1.62c.98-1.08,1.47-2.62,1.47-4.63Z"/>
      </g>
    </g>
  </g>
</svg>