<?xml version="1.0" encoding="UTF-8"?>
<svg id="Layer_2" data-name="Layer 2" xmlns="http://www.w3.org/2000/svg" xmlns:xlink="http://www.w3.org/1999/xlink" viewBox="0 0 310.11 310.11">
  <defs>
    <style>
      .cls-1 {
        fill: url(#linear-gradient);
      }

      .cls-2 {
        fill: #fff;
      }

      .cls-3 {
        fill: #2d2d2d;
      }
    </style>
    <linearGradient id="linear-gradient" x1="0" y1="155.05" x2="310.11" y2="155.05" gradientTransform="translate(155.05 -64.22) rotate(45)" gradientUnits="userSpaceOnUse">
      <stop offset="0" stop-color="#019580"/>
      <stop offset=".51" stop-color="#078086"/>
      <stop offset="1" stop-color="#125793"/>
    </linearGradient>
  </defs>
  <g id="OBJECTS">
    <g>
      <rect class="cls-1" x="36.42" y="36.43" width="237.26" height="237.26" rx="30.69" ry="30.69" transform="translate(-64.23 155.05) rotate(-45)"/>
      <rect class="cls-2" x="63.22" y="63.22" width="183.67" height="183.67" rx="5.56" ry="5.56" transform="translate(-64.23 155.05) rotate(-45)"/>
      <g>
        <path d="M119.71,204.26h-31.42c.36-3.1,1.45-6.02,3.28-8.75,1.83-2.73,5.25-5.96,10.27-9.68,3.07-2.28,5.03-4.01,5.89-5.19,.86-1.18,1.29-2.31,1.29-3.37,0-1.15-.42-2.13-1.27-2.94-.85-.81-1.92-1.22-3.2-1.22s-2.43,.42-3.28,1.26c-.85,.84-1.42,2.32-1.71,4.45l-10.49-.85c.41-2.95,1.17-5.25,2.26-6.9s2.64-2.92,4.64-3.81c2-.88,4.76-1.32,8.29-1.32s6.55,.42,8.6,1.26c2.05,.84,3.66,2.13,4.83,3.87s1.76,3.69,1.76,5.85c0,2.3-.67,4.49-2.02,6.58s-3.79,4.39-7.34,6.89c-2.11,1.46-3.52,2.48-4.23,3.06-.71,.58-1.55,1.35-2.51,2.29h16.35v8.54Z"/>
        <path d="M124.18,185.26c0-7.16,1.29-12.18,3.87-15.04,2.58-2.86,6.51-4.29,11.79-4.29,2.54,0,4.62,.31,6.25,.94,1.63,.62,2.96,1.44,3.99,2.44,1.03,1,1.84,2.06,2.43,3.16,.59,1.11,1.07,2.4,1.43,3.87,.7,2.81,1.05,5.74,1.05,8.79,0,6.84-1.16,11.84-3.47,15.01s-6.3,4.76-11.96,4.76c-3.17,0-5.73-.51-7.69-1.52-1.95-1.01-3.56-2.49-4.81-4.45-.91-1.39-1.62-3.29-2.12-5.69s-.76-5.07-.76-7.98Zm10.39,.03c0,4.8,.42,8.08,1.27,9.83,.85,1.76,2.08,2.63,3.69,2.63,1.06,0,1.98-.37,2.76-1.12,.78-.75,1.35-1.92,1.72-3.54,.37-1.61,.55-4.12,.55-7.53,0-5-.42-8.37-1.27-10.09-.85-1.72-2.12-2.58-3.82-2.58s-2.98,.88-3.75,2.64-1.16,5.01-1.16,9.76Z"/>
        <path d="M189.94,204.26h-31.42c.36-3.1,1.45-6.02,3.28-8.75,1.83-2.73,5.25-5.96,10.27-9.68,3.07-2.28,5.03-4.01,5.89-5.19,.86-1.18,1.29-2.31,1.29-3.37,0-1.15-.42-2.13-1.27-2.94-.85-.81-1.92-1.22-3.2-1.22s-2.43,.42-3.28,1.26c-.85,.84-1.42,2.32-1.71,4.45l-10.49-.85c.41-2.95,1.17-5.25,2.26-6.9s2.64-2.92,4.64-3.81c2-.88,4.76-1.32,8.29-1.32s6.55,.42,8.6,1.26c2.05,.84,3.66,2.13,4.83,3.87s1.76,3.69,1.76,5.85c0,2.3-.67,4.49-2.02,6.58s-3.79,4.39-7.34,6.89c-2.11,1.46-3.52,2.48-4.23,3.06-.71,.58-1.55,1.35-2.51,2.29h16.35v8.54Z"/>
        <path d="M218.15,165.93v38.33h-10.59v-25.12c-1.71,1.3-3.37,2.36-4.98,3.16s-3.61,1.58-6.03,2.31v-8.59c3.56-1.15,6.33-2.53,8.3-4.14,1.97-1.61,3.51-3.6,4.63-5.96h8.66Z"/>
      </g>
      <g>
        <circle class="cls-3" cx="155.3" cy="105.07" r="30.22"/>
        <path class="cls-2" d="M159.96,100.89c1.21-1.2,1.95-2.86,1.95-4.69,0-3.65-2.96-6.61-6.61-6.61s-6.61,2.96-6.61,6.61c0,1.83,.75,3.49,1.95,4.69-3.62,.99-6.28,4.29-6.28,8.23v13.34h21.88v-13.34c0-3.93-2.66-7.24-6.28-8.23Z"/>
        <path class="cls-2" d="M139.19,99.75c.65-.65,1.05-1.54,1.05-2.53,0-1.97-1.6-3.57-3.57-3.57s-3.57,1.6-3.57,3.57c0,.99,.4,1.89,1.05,2.53-1.95,.53-3.39,2.32-3.39,4.44v7.2h11.81v-7.2c0-2.12-1.44-3.91-3.39-4.44Z"/>
        <path class="cls-2" d="M176.27,100.46c.65-.64,1.04-1.53,1.04-2.51,0-1.95-1.58-3.54-3.54-3.54s-3.54,1.58-3.54,3.54c0,.98,.4,1.87,1.05,2.51-1.94,.53-3.36,2.3-3.36,4.4v7.14h11.71v-7.14c0-2.1-1.43-3.87-3.36-4.4Z"/>
      </g>
    </g>
  </g>
</svg>