<?xml version="1.0" encoding="UTF-8"?>
<svg id="Layer_2" data-name="Layer 2" xmlns="http://www.w3.org/2000/svg" xmlns:xlink="http://www.w3.org/1999/xlink" viewBox="0 0 310.11 310.11">
  <defs>
    <style>
      .cls-1 {
        fill: url(#linear-gradient);
      }

      .cls-2 {
        fill: #fff;
      }

      .cls-3 {
        fill: #2d2d2d;
      }
    </style>
    <linearGradient id="linear-gradient" x1="0" y1="155.05" x2="310.11" y2="155.05" gradientTransform="translate(155.05 -64.22) rotate(45)" gradientUnits="userSpaceOnUse">
      <stop offset="0" stop-color="#029380"/>
      <stop offset=".51" stop-color="#078086"/>
      <stop offset="1" stop-color="#115b92"/>
    </linearGradient>
  </defs>
  <g id="OBJECTS">
    <g>
      <rect class="cls-1" x="36.42" y="36.43" width="237.26" height="237.26" rx="30.69" ry="30.69" transform="translate(-64.23 155.05) rotate(-45)"/>
      <rect class="cls-2" x="63.22" y="63.22" width="183.67" height="183.67" rx="5.56" ry="5.56" transform="translate(-64.23 155.05) rotate(-45)"/>
      <g>
        <path d="M115.48,204.26h-31.42c.36-3.1,1.45-6.02,3.28-8.75,1.83-2.73,5.25-5.96,10.27-9.68,3.07-2.28,5.03-4.01,5.89-5.19,.86-1.18,1.29-2.31,1.29-3.37,0-1.15-.42-2.13-1.27-2.94-.85-.81-1.92-1.22-3.2-1.22s-2.43,.42-3.28,1.26c-.85,.84-1.42,2.32-1.71,4.45l-10.49-.85c.41-2.95,1.17-5.25,2.26-6.9s2.64-2.92,4.64-3.81c2-.88,4.76-1.32,8.29-1.32s6.55,.42,8.6,1.26c2.05,.84,3.66,2.13,4.83,3.87s1.76,3.69,1.76,5.85c0,2.3-.67,4.49-2.02,6.58s-3.79,4.39-7.34,6.89c-2.11,1.46-3.52,2.48-4.23,3.06-.71,.58-1.55,1.35-2.51,2.29h16.35v8.54Z"/>
        <path d="M119.95,185.26c0-7.16,1.29-12.18,3.87-15.04,2.58-2.86,6.51-4.29,11.79-4.29,2.54,0,4.62,.31,6.25,.94,1.63,.62,2.96,1.44,3.99,2.44,1.03,1,1.84,2.06,2.43,3.16,.59,1.11,1.07,2.4,1.43,3.87,.7,2.81,1.05,5.74,1.05,8.79,0,6.84-1.16,11.84-3.47,15.01s-6.3,4.76-11.96,4.76c-3.17,0-5.73-.51-7.69-1.52-1.95-1.01-3.56-2.49-4.81-4.45-.91-1.39-1.62-3.29-2.12-5.69s-.76-5.07-.76-7.98Zm10.39,.03c0,4.8,.42,8.08,1.27,9.83,.85,1.76,2.08,2.63,3.69,2.63,1.06,0,1.98-.37,2.76-1.12,.78-.75,1.35-1.92,1.72-3.54,.37-1.61,.55-4.12,.55-7.53,0-5-.42-8.37-1.27-10.09-.85-1.72-2.12-2.58-3.82-2.58s-2.98,.88-3.75,2.64-1.16,5.01-1.16,9.76Z"/>
        <path d="M185.72,204.26h-31.42c.36-3.1,1.45-6.02,3.28-8.75,1.83-2.73,5.25-5.96,10.27-9.68,3.07-2.28,5.03-4.01,5.89-5.19,.86-1.18,1.29-2.31,1.29-3.37,0-1.15-.42-2.13-1.27-2.94-.85-.81-1.92-1.22-3.2-1.22s-2.43,.42-3.28,1.26c-.85,.84-1.42,2.32-1.71,4.45l-10.49-.85c.41-2.95,1.17-5.25,2.26-6.9s2.64-2.92,4.64-3.81c2-.88,4.76-1.32,8.29-1.32s6.55,.42,8.6,1.26c2.05,.84,3.66,2.13,4.83,3.87s1.76,3.69,1.76,5.85c0,2.3-.67,4.49-2.02,6.58s-3.79,4.39-7.34,6.89c-2.11,1.46-3.52,2.48-4.23,3.06-.71,.58-1.55,1.35-2.51,2.29h16.35v8.54Z"/>
        <path d="M200.35,177.47l-9.9-1.77c.82-3.15,2.4-5.57,4.74-7.25s5.65-2.52,9.94-2.52c4.92,0,8.48,.92,10.67,2.75,2.19,1.83,3.29,4.14,3.29,6.92,0,1.63-.45,3.1-1.34,4.42-.89,1.32-2.24,2.48-4.04,3.47,1.46,.36,2.57,.78,3.34,1.26,1.25,.77,2.22,1.79,2.92,3.05s1.04,2.76,1.04,4.51c0,2.19-.57,4.3-1.72,6.31-1.15,2.01-2.8,3.57-4.96,4.65-2.16,1.09-5,1.63-8.51,1.63s-6.13-.4-8.11-1.21-3.61-1.98-4.88-3.54c-1.28-1.55-2.26-3.5-2.94-5.85l10.46-1.39c.41,2.11,1.05,3.57,1.92,4.38,.87,.81,1.97,1.22,3.3,1.22,1.41,0,2.58-.51,3.51-1.54,.93-1.03,1.4-2.4,1.4-4.11s-.45-3.1-1.35-4.06c-.9-.96-2.12-1.44-3.66-1.44-.82,0-1.95,.21-3.39,.62l.54-7.48c.58,.09,1.04,.13,1.36,.13,1.37,0,2.51-.44,3.43-1.31s1.38-1.91,1.38-3.11-.34-2.06-1.03-2.75c-.69-.68-1.63-1.03-2.83-1.03s-2.24,.37-3.01,1.12c-.77,.75-1.29,2.05-1.57,3.92Z"/>
      </g>
      <g>
        <path class="cls-3" d="M164.38,122.2v-7.99h-4.93c-.37-1.23-.89-2.39-1.53-3.47l3.49-3.49-5.65-5.65-3.49,3.49c-1.14-.67-2.37-1.21-3.67-1.58v-5.07h-7.99v4.85c-1.41,.32-2.74,.82-3.98,1.49l-3.18-3.18-5.65,5.65,2.96,2.96c-.79,1.23-1.43,2.58-1.86,4.01h-4.06v7.99h3.74c.36,1.69,1,3.28,1.85,4.73l-2.62,2.62,5.65,5.65,2.62-2.62c1.39,.82,2.92,1.44,4.54,1.8v3.59h7.99v-3.82c1.51-.43,2.92-1.08,4.2-1.91l2.96,2.96,5.65-5.65-3.18-3.18c.7-1.3,1.22-2.7,1.53-4.18h4.61Zm-19.77,3.57c-4.07,0-7.38-3.3-7.38-7.38s3.3-7.38,7.38-7.38,7.38,3.3,7.38,7.38-3.3,7.38-7.38,7.38Z"/>
        <path class="cls-3" d="M172.45,88.89v-5.63h-3.47c-.26-.86-.62-1.68-1.07-2.45l2.46-2.46-3.98-3.98-2.46,2.46c-.8-.47-1.67-.85-2.58-1.11v-3.57h-5.63v3.41c-.99,.23-1.93,.58-2.8,1.05l-2.24-2.24-3.98,3.98,2.08,2.08c-.56,.87-1,1.81-1.31,2.82h-2.86v5.63h2.63c.26,1.19,.7,2.31,1.3,3.33l-1.85,1.85,3.98,3.98,1.85-1.85c.98,.58,2.05,1.01,3.19,1.27v2.53h5.63v-2.69c1.06-.31,2.05-.76,2.96-1.35l2.08,2.08,3.98-3.98-2.24-2.24c.49-.91,.86-1.9,1.08-2.94h3.25Zm-13.92,2.52c-2.87,0-5.19-2.33-5.19-5.19s2.33-5.19,5.19-5.19,5.19,2.33,5.19,5.19-2.33,5.19-5.19,5.19Z"/>
        <path class="cls-3" d="M188.05,113.18v-4.32h-2.66c-.2-.66-.48-1.29-.82-1.88l1.89-1.89-3.05-3.05-1.89,1.89c-.62-.36-1.28-.65-1.98-.85v-2.74h-4.32v2.62c-.76,.17-1.48,.45-2.15,.8l-1.72-1.72-3.05,3.05,1.6,1.6c-.43,.66-.77,1.39-1,2.17h-2.19v4.32h2.02c.2,.91,.54,1.77,1,2.56l-1.42,1.42,3.05,3.05,1.42-1.42c.75,.44,1.58,.77,2.45,.97v1.94h4.32v-2.06c.81-.23,1.58-.58,2.27-1.03l1.6,1.6,3.05-3.05-1.72-1.72c.38-.7,.66-1.46,.83-2.26h2.49Zm-10.68,1.93c-2.2,0-3.98-1.78-3.98-3.98s1.78-3.98,3.98-3.98,3.98,1.78,3.98,3.98-1.78,3.98-3.98,3.98Z"/>
      </g>
    </g>
  </g>
</svg>