<?xml version="1.0" encoding="utf-8"?>
<!-- Generator: Adobe Illustrator 27.0.0, SVG Export Plug-In . SVG Version: 6.00 Build 0)  -->
<svg version="1.1" id="Layer_2_00000094608192724036633070000004963211757372104107_"
	 xmlns="http://www.w3.org/2000/svg" xmlns:xlink="http://www.w3.org/1999/xlink" x="0px" y="0px" viewBox="0 0 94.6 94.6"
	 style="enable-background:new 0 0 94.6 94.6;" xml:space="preserve">
<g id="OBJECTS">
	<g>
		<path d="M93.9,40.6L76.7,22.3c-0.4-0.4-1-0.4-1.5,0L68,29.1c-0.4,0.4-0.4,1,0,1.5l17.3,18.3c0.4,0.4,1,0.4,1.5,0l7.2-6.8
			C94.3,41.7,94.3,41,93.9,40.6z M87.6,42.7c-0.9,0.9-2.3,0.8-3.2-0.1c-0.9-0.9-0.8-2.3,0.1-3.2c0.9-0.9,2.3-0.8,3.2,0.1
			C88.6,40.4,88.5,41.8,87.6,42.7z M18.1,24.8c-0.4-0.4-1.1-0.3-1.4,0.2L0.6,45.7c-0.4,0.4-0.3,1.1,0.2,1.4l7.9,6.1
			c0.4,0.4,1.1,0.3,1.4-0.2l16.1-20.7c0.4-0.4,0.3-1.1-0.2-1.4L18.1,24.8z M10.5,46.4c-0.8,1-2.2,1.2-3.2,0.4S6.2,44.6,7,43.6
			s2.2-1.2,3.2-0.4C11.1,44,11.3,45.4,10.5,46.4z"/>
		<path d="M70.4,66.5L52.8,52.7l-3.2,3c-4.6,4.1-8.7,5.2-11.8,5.2c-0.8,0-1.5-0.1-2.2-0.2c-4.3-0.7-7.1-3.5-8.4-5.8
			c-1.6-2.5-1.1-5.7,1.1-7.8L41,35.5c-1.5-1.1-3.3-1.7-5-1.7c-2.5,0-4.9,1.1-6.5,3.2L17,53c-1,1.3-1.5,2.9-1.3,4.6l0.8,6.5
			c0.2,1.6,1,3.1,2.3,4.1l21.8,17c0.6,0.5,1.3,0.7,2.1,0.7c0.9,0,1.8-0.4,2.5-1.1l1-1.1c1.3-1.4,1.1-3.6-0.3-4.8l3.7,3.1
			c0.6,0.5,1.4,0.8,2.1,0.8c0.8,0,1.7-0.3,2.3-0.9l1.1-1.1c1.4-1.4,1.3-3.7-0.2-5l2.7,2.3c0.6,0.5,1.4,0.8,2.1,0.8
			c0.9,0,1.7-0.3,2.3-1l1-1c1.4-1.4,1.3-3.6-0.1-4.9l1.8,1.5c0.6,0.5,1.4,0.8,2.2,0.8c1,0,1.9-0.4,2.6-1.2l1.5-1.8
			C72.2,69.8,71.9,67.7,70.4,66.5L70.4,66.5z M79.1,50L64.2,34.7c-0.6-0.7-1.5-1.1-2.4-1.2l-7.7-1c-1.2-0.2-2.4,0.2-3.3,1L49,35.2
			L31.8,50.8c-0.2,0.2-0.6,0.7-0.2,1.3l0.1,0.2c0.7,1.2,2.3,2.8,4.8,3.3c3,0.5,6.3-0.8,9.6-3.7l6.4-5.9l20.2,15.8l6.3-5.9
			C80.7,54.2,80.7,51.6,79.1,50z"/>
	</g>
</g>
</svg>
