<?xml version="1.0" encoding="utf-8"?>
<!-- Generator: Adobe Illustrator 27.0.0, SVG Export Plug-In . SVG Version: 6.00 Build 0)  -->
<svg version="1.1" id="Layer_2_00000018202076865658991210000007861564780044500885_"
	 xmlns="http://www.w3.org/2000/svg" xmlns:xlink="http://www.w3.org/1999/xlink" x="0px" y="0px" viewBox="0 0 94.6 94.6"
	 style="enable-background:new 0 0 94.6 94.6;" xml:space="preserve">
<g id="OBJECTS">
	<g>
		<path d="M27.3,48.2c-2.3-2.3-6-2.1-8.1,0.4c-1.8,2.2-1.4,5.5,0.6,7.5l6,6c1.2,1.2,1.2,3.1,0,4.3s-3.1,1.2-4.3,0l-5.8-5.8
			c-2.2-2.2-3.5-5.1-3.6-8.3l0-14.1c0-3.5-3-6.2-6.5-5.9c-3.1,0.3-5.3,3.1-5.3,6.2v14.5c0,3.3,1.2,6.6,3.3,9.1L17,77.9
			c0.2,0.3,0.6,0.4,0.9,0.4l24.2,0c0.7,0,1.2-0.5,1.2-1.2V70c0-3.8-1.5-7.3-4.1-10L27.3,48.2L27.3,48.2z M88.9,32.4
			c-3.5-0.3-6.5,2.4-6.5,5.9l0,14.1c-0.1,3.1-1.4,6-3.6,8.3L73,66.4c-1.2,1.2-3.1,1.2-4.3,0c-1.2-1.2-1.2-3.1,0-4.3l6-6
			c2-2,2.4-5.3,0.6-7.5c-2.1-2.5-5.8-2.7-8.1-0.4L55.4,60c-2.7,2.7-4.1,6.3-4.1,10v7.1c0,0.7,0.5,1.2,1.2,1.2l24.2,0
			c0.3,0,0.7-0.2,0.9-0.4l13.2-15.7c2.2-2.6,3.3-5.8,3.3-9.1V38.5C94.1,35.5,91.9,32.7,88.9,32.4L88.9,32.4z"/>
		<path d="M42.7,84.8H18.5c-0.7,0-1.2,0.5-1.2,1.2v4.7c0,0.7,0.5,1.2,1.2,1.2h24.2c0.7,0,1.2-0.5,1.2-1.2V86
			C43.9,85.4,43.4,84.8,42.7,84.8z M76,84.8H51.8c-0.7,0-1.2,0.5-1.2,1.2v4.7c0,0.7,0.5,1.2,1.2,1.2H76c0.7,0,1.2-0.5,1.2-1.2V86
			C77.2,85.4,76.7,84.8,76,84.8z M71.6,26.4C71.6,13.4,61,2.9,48,2.9S24.4,13.4,24.4,26.4S35,50,48,50S71.6,39.5,71.6,26.4
			L71.6,26.4z M46.5,22.3l5.4,2.8c3.1,1.6,4.7,4.9,4.2,8.3c-0.4,2.8-2.2,5-4.7,5.9v1c0,1.6-1.3,3-3,3c-1.6,0-3-1.3-3-3v-0.8
			c-2.6-0.8-4.9-2.7-6-5.3c-0.6-1.5,0-3.2,1.5-3.9c1.5-0.6,3.2,0,3.9,1.5c0.6,1.4,2.1,2.3,3.6,2.2l0.3,0c1.1-0.2,1.4-1.1,1.5-1.5
			c0.1-0.3,0.1-1.5-1.1-2.2l-5.4-2.8c-3.1-1.6-4.8-5-4.1-8.5c0.6-3.1,2.8-5.5,5.8-6.2V12c0-1.6,1.3-3,3-3c1.6,0,3,1.3,3,3v1.5
			c2.1,1,3.8,2.6,4.8,4.9c0.6,1.5,0,3.2-1.5,3.9c-1.5,0.6-3.2,0-3.9-1.5c-0.6-1.4-2.1-2.3-3.6-2.2c-1.3,0.1-1.6,1.1-1.7,1.6
			C45.4,20.4,45.3,21.6,46.5,22.3L46.5,22.3z"/>
	</g>
</g>
</svg>
