<?xml version="1.0" encoding="utf-8"?>
<!-- Generator: Adobe Illustrator 27.0.0, SVG Export Plug-In . SVG Version: 6.00 Build 0)  -->
<svg version="1.1" id="Layer_2_00000163060848329379436740000001497218754592095633_"
	 xmlns="http://www.w3.org/2000/svg" xmlns:xlink="http://www.w3.org/1999/xlink" x="0px" y="0px" viewBox="0 0 94.6 94.6"
	 style="enable-background:new 0 0 94.6 94.6;" xml:space="preserve">
<g id="OBJECTS">
	<g>
		<path d="M9,48.7c0.8,0.8,1.8,1.2,2.8,1.2s2-0.4,2.8-1.2l5.6-5.6l5.6,5.6c0.8,0.8,1.8,1.2,2.8,1.2s2-0.4,2.8-1.2
			c1.5-1.5,1.5-4,0-5.6l-5.6-5.6l5.6-5.6c1.5-1.5,1.5-4,0-5.6c-1.5-1.5-4-1.5-5.6,0L20.1,32l-5.6-5.6c-1.5-1.5-4-1.5-5.6,0
			s-1.5,4,0,5.6l5.6,5.6L9,43.2C7.4,44.7,7.4,47.2,9,48.7L9,48.7z M52.7,50.7c2.7-2.7,4.2-6.4,4.2-10.2V22.7H49v17.8
			c0,1.7-0.7,3.4-1.9,4.7L25.4,66.8c-2-1-4.2-1.6-6.6-1.6c-8,0-14.4,6.5-14.4,14.4s6.5,14.4,14.4,14.4s14.4-6.5,14.4-14.4
			c0-2.7-0.8-5.3-2.1-7.4C31.2,72.2,52.7,50.7,52.7,50.7z M18.8,86.2c-3.6,0-6.6-2.9-6.6-6.6s2.9-6.6,6.6-6.6s6.6,2.9,6.6,6.6
			S22.4,86.2,18.8,86.2z M65.1,82.3l5.6-5.6c1.5-1.5,1.5-4,0-5.6s-4-1.5-5.6,0l-5.6,5.6L54,71.1c-1.5-1.5-4-1.5-5.6,0s-1.5,4,0,5.6
			l5.6,5.6l-5.6,5.6c-1.5,1.5-1.5,4,0,5.6c0.8,0.8,1.8,1.2,2.8,1.2s2-0.4,2.8-1.2l5.6-5.6l5.6,5.6c0.8,0.8,1.8,1.2,2.8,1.2
			s2-0.4,2.8-1.2c1.5-1.5,1.5-4,0-5.6L65.1,82.3L65.1,82.3z"/>
		<path d="M55.2,1c-1.2-1.3-3.2-1.3-4.4,0l-9,10.2c-1.7,1.9-0.3,4.9,2.2,4.9H62c2.5,0,3.9-3,2.2-4.9L55.2,1z M83.5,42.8l5.6-5.6
			c1.5-1.5,1.5-4,0-5.6s-4-1.5-5.6,0l-5.6,5.6l-5.6-5.6c-1.5-1.5-4-1.5-5.6,0s-1.5,4,0,5.6l5.6,5.6l-5.6,5.6c-1.5,1.5-1.5,4,0,5.6
			c0.8,0.8,1.8,1.2,2.8,1.2s2-0.4,2.8-1.2l5.6-5.6l5.6,5.6c0.8,0.8,1.8,1.2,2.8,1.2s2-0.4,2.8-1.2c1.5-1.5,1.5-4,0-5.6L83.5,42.8
			L83.5,42.8z"/>
	</g>
</g>
</svg>
