<?xml version="1.0" encoding="UTF-8"?>
<svg id="Layer_2" data-name="Layer 2" xmlns="http://www.w3.org/2000/svg" viewBox="0 0 109.96 99.19">
  <defs>
    <style>
      .cls-1 {
        fill: #fff;
      }
    </style>
  </defs>
  <g id="OBJECTS">
    <g>
      <path class="cls-1" d="M109.96,70.99c0-15.57-12.62-28.2-28.2-28.2s-28.2,12.62-28.2,28.2,12.62,28.2,28.2,28.2,28.2-12.62,28.2-28.2Zm-29.99-5l6.51,3.35c3.7,1.9,5.66,5.81,5,9.95-.53,3.32-2.67,5.93-5.64,7.11v1.18c0,1.95-1.58,3.52-3.52,3.52s-3.52-1.58-3.52-3.52v-.94c-3.15-.94-5.8-3.22-7.17-6.37-.78-1.78,.04-3.86,1.83-4.64,1.79-.77,3.86,.04,4.64,1.83,.74,1.71,2.52,2.75,4.35,2.58l.32-.04c1.36-.22,1.69-1.36,1.77-1.84,.07-.42,.17-1.83-1.26-2.57l-6.51-3.35c-3.74-1.92-5.72-6-4.95-10.15,.7-3.76,3.4-6.53,7-7.36v-.99c0-1.95,1.58-3.52,3.52-3.52s3.52,1.58,3.52,3.52v1.74c2.5,1.13,4.59,3.15,5.75,5.81,.78,1.79-.04,3.86-1.83,4.64-1.79,.78-3.86-.04-4.64-1.83-.74-1.71-2.51-2.73-4.35-2.58-1.58,.17-1.96,1.36-2.05,1.86-.08,.42-.22,1.84,1.24,2.59Z"/>
      <path class="cls-1" d="M87.41,0h-11.28c-3.11,0-5.64,2.52-5.64,5.64s-2.52,5.64-5.64,5.64-5.64-2.52-5.64-5.64-2.52-5.64-5.64-5.64h-14.1c-3.11,0-5.64,2.52-5.64,5.64s-2.52,5.64-5.64,5.64-5.64-2.52-5.64-5.64S20.03,0,16.92,0H5.64C2.52,0,0,2.52,0,5.64V76.13c0,3.11,2.52,5.64,5.64,5.64H48.38c-1.5-3.77-2.36-7.88-2.36-12.18,0-18.18,14.74-32.92,32.92-32.92,5.05,0,9.82,1.17,14.1,3.21V5.64c0-3.11-2.52-5.64-5.64-5.64ZM16.92,68.17c-3.11,0-5.64-2.52-5.64-5.64s2.52-5.64,5.64-5.64,5.64,2.52,5.64,5.64-2.52,5.64-5.64,5.64Zm0-16.92c-3.11,0-5.64-2.52-5.64-5.64s2.52-5.64,5.64-5.64,5.64,2.52,5.64,5.64-2.52,5.64-5.64,5.64Zm16.92,16.92c-3.11,0-5.64-2.52-5.64-5.64s2.52-5.64,5.64-5.64,5.64,2.52,5.64,5.64-2.52,5.64-5.64,5.64Zm0-16.92c-3.11,0-5.64-2.52-5.64-5.64s2.52-5.64,5.64-5.64,5.64,2.52,5.64,5.64-2.52,5.64-5.64,5.64Zm0-16.92c-3.11,0-5.64-2.52-5.64-5.64s2.52-5.64,5.64-5.64,5.64,2.52,5.64,5.64-2.52,5.64-5.64,5.64Zm16.92,0c-3.11,0-5.64-2.52-5.64-5.64s2.52-5.64,5.64-5.64,5.64,2.52,5.64,5.64-2.52,5.64-5.64,5.64Z"/>
    </g>
  </g>
</svg>