<?xml version="1.0" encoding="UTF-8"?>
<svg id="Layer_2" data-name="Layer 2" xmlns="http://www.w3.org/2000/svg" viewBox="0 0 97.28 84.13">
  <g id="OBJECTS">
    <g>
      <path d="M91.64,49.25c0,.12-.02,.24-.03,.36,0,.1,.03,.2,.03,.3v-.66Zm-2.45-21.52h-25.75c-3.11,0-5.64-2.52-5.64-5.64V11.28C57.8,4.93,52.55-.2,46.15,0c-2.97,.1-5.27,2.66-5.27,5.63v11.28c0,8-11.28,13.64-11.28,19.27v36.07c0,2.09,1.15,4,3,4.98,1.03,.54,2.24,1.19,3.5,1.86,6.15,3.3,13.02,5.02,19.99,5.02h21.82c4.47,0,8.09-3.62,8.09-8.09v-.75c0-1.35-.36-2.6-.95-3.72,2.26-1.43,3.77-3.94,3.77-6.81v-2.16c0-2.28-.95-4.33-2.46-5.79,2.97-1.1,5.1-3.88,5.25-7.19-.07-1.92-.82-3.66-2-5.01,4.27-.22,7.67-3.72,7.67-8.04v-.75c0-4.47-3.62-8.09-8.09-8.09Z"/>
      <path d="M21.15,30.55H1.41c-.78,0-1.41,.63-1.41,1.41v45.11c0,.78,.63,1.41,1.41,1.41H21.15c.78,0,1.41-.63,1.41-1.41V31.96c0-.78-.63-1.41-1.41-1.41Zm-9.87,39.47c-2.34,0-4.23-1.89-4.23-4.23s1.89-4.23,4.23-4.23,4.23,1.89,4.23,4.23-1.89,4.23-4.23,4.23Z"/>
    </g>
  </g>
</svg>