<?xml version="1.0" encoding="utf-8"?>
<!-- Generator: Adobe Illustrator 27.0.0, SVG Export Plug-In . SVG Version: 6.00 Build 0)  -->
<svg version="1.1" id="Layer_2_00000122694767966757563830000011907334254902364825_"
	 xmlns="http://www.w3.org/2000/svg" xmlns:xlink="http://www.w3.org/1999/xlink" x="0px" y="0px" viewBox="0 0 110 110"
	 style="enable-background:new 0 0 110 110;" xml:space="preserve">
<g>
	<g>
		<g>
			<g>
				<path d="M94.1,45.5c0-6,0-12,0-17.9c0-1.5-0.5-2-2-2.2c-3.1-0.4-6.2-0.7-9.2-1.3c-9.7-2.1-18.3-6.6-26.3-12.2
					c-1.9-1.3-1.9-1.4-3.9,0c-10.7,7.4-22.1,12.7-35.3,13.6c-2,0.1-2.3,0.6-2.3,2.6c0,10.7-0.1,21.5,0.1,32.3c0,2.7,0.4,5.4,1,8
					c1.6,6.9,5.3,12.6,10.2,17.6c7.8,7.8,17.2,13.2,27.4,17c0.6,0.2,1.4,0.2,2-0.1c3.6-1.6,7.1-3,10.6-4.8
					c8.1-4.3,15.4-9.7,20.9-17.2c3.9-5.2,6.4-11.1,6.7-17.6C94.1,57.2,94.1,51.3,94.1,45.5z M54.5,86.7c-16.5,0-29.9-13.4-29.9-29.9
					S38.1,27,54.5,27s29.9,13.4,29.9,29.9S71,86.7,54.5,86.7z"/>
			</g>
		</g>
		<g>
			<g>
				<path d="M54.5,33.2c-13.1,0-23.7,10.6-23.7,23.7c0,13.1,10.6,23.7,23.7,23.7c13.1,0,23.7-10.6,23.7-23.7
					C78.2,43.8,67.6,33.2,54.5,33.2z M62.2,67.4c-1.2,1.4-2.7,2.4-4.5,2.9c-0.8,0.2-1.1,0.6-1.1,1.4c0,0.8,0,1.6,0,2.4
					c0,0.7-0.4,1.1-1.1,1.1c-0.9,0-1.7,0-2.6,0c-0.7,0-1.1-0.4-1.1-1.2c0-0.6,0-1.2,0-1.7c0-1.3-0.1-1.3-1.3-1.5
					c-1.6-0.2-3.1-0.6-4.5-1.3c-1.1-0.5-1.2-0.8-0.9-2c0.2-0.9,0.5-1.8,0.8-2.6c0.3-1,0.6-1.1,1.5-0.7c1.6,0.8,3.3,1.3,5,1.5
					c1.1,0.2,2.3,0,3.3-0.4c2-0.9,2.3-3.1,0.6-4.5c-0.6-0.5-1.2-0.8-1.9-1.1c-1.7-0.8-3.5-1.3-5.2-2.3c-2.6-1.6-4.3-3.8-4.1-7
					c0.2-3.6,2.3-5.9,5.6-7.1c1.4-0.5,1.4-0.5,1.4-1.9c0-0.5,0-1,0-1.5c0-1.1,0.2-1.3,1.3-1.3c0.3,0,0.7,0,1,0c2.3,0,2.3,0,2.3,2.3
					c0,1.6,0,1.6,1.6,1.9c1.2,0.2,2.4,0.6,3.6,1.1c0.6,0.3,0.9,0.7,0.7,1.4c-0.3,1-0.5,2-0.9,3c-0.3,0.9-0.6,1.1-1.5,0.6
					c-1.8-0.9-3.7-1.2-5.7-1.1c-0.5,0-1,0.1-1.5,0.3c-1.7,0.8-2,2.6-0.5,3.8c0.7,0.6,1.6,1,2.5,1.4c1.5,0.6,3,1.2,4.5,2
					C64.2,57.7,65.5,63.5,62.2,67.4z"/>
			</g>
		</g>
	</g>
</g>
</svg>
