<?xml version="1.0" encoding="utf-8"?>
<!-- Generator: Adobe Illustrator 27.0.0, SVG Export Plug-In . SVG Version: 6.00 Build 0)  -->
<svg version="1.1" id="Layer_2_00000060713053167679262270000006399763845349499021_"
	 xmlns="http://www.w3.org/2000/svg" xmlns:xlink="http://www.w3.org/1999/xlink" x="0px" y="0px" viewBox="0 0 110 110"
	 style="enable-background:new 0 0 110 110;" xml:space="preserve">
<g id="OBJECTS">
	<g>
		<path d="M38.2,63.6V21.9c0-1.4,1.1-2.5,2.5-2.5h29.4c1.4,0,2.5,1.1,2.5,2.5v30.7c0.6,0,1.2,0,1.8,0.1c2,0.3,4,1.2,5.5,2.6
			c0,0,0,0,0,0V17c0-5.4-4.4-9.8-9.8-9.8H40.7c-5.4,0-9.8,4.4-9.8,9.8v51.7c2-2.1,4.8-3.5,7.8-3.8C38.4,64.5,38.2,64.1,38.2,63.6z
			 M83.2,61.2c-1.8-0.3-3.9,0.4-5.3,1.6c-0.5-2-2.4-3.7-4.5-4.1c-1.7-0.3-3.7,0.4-5.1,1.5c-0.6-2-2.7-3.6-4.7-3.9
			C61.7,56,59,57,57.9,58.4V42.9c0-2.1-1.3-4.2-3.3-4.9c-3.4-1.1-6.5,1.4-6.5,4.7V82c-2.7,0-4.9-2.2-4.9-4.9v-4.4
			c0-0.9-0.8-1.7-1.7-1.7H40c-3.7,0-6.6,3-6.6,6.6v12.1c0,2.1,0.9,4.1,2.5,5.5l6.6,5.8c1.3,1.2,3.1,1.8,4.9,1.8h27.1
			c2,0,3.8-0.8,5.2-2.2l5.5-5.5c1.4-1.4,2.2-3.3,2.2-5.2V66.3C87.3,63.8,85.6,61.6,83.2,61.2L83.2,61.2z"/>
		<path d="M49,24.3h-4.9c-0.7,0-1.2,0.5-1.2,1.2v4.9c0,0.7,0.5,1.2,1.2,1.2H49c0.7,0,1.2-0.5,1.2-1.2v-4.9
			C50.3,24.9,49.7,24.3,49,24.3z M61.3,24.3h-4.9c-0.7,0-1.2,0.5-1.2,1.2v4.9c0,0.7,0.5,1.2,1.2,1.2h4.9c0.7,0,1.2-0.5,1.2-1.2v-4.9
			C62.5,24.9,62,24.3,61.3,24.3z"/>
	</g>
</g>
</svg>
