<?xml version="1.0" encoding="utf-8"?>
<!-- Generator: Adobe Illustrator 27.0.0, SVG Export Plug-In . SVG Version: 6.00 Build 0)  -->
<svg version="1.1" id="Layer_2_00000178904885527732940850000008150992189660305553_"
	 xmlns="http://www.w3.org/2000/svg" xmlns:xlink="http://www.w3.org/1999/xlink" x="0px" y="0px" viewBox="0 0 110 110"
	 style="enable-background:new 0 0 110 110;" xml:space="preserve">
<style type="text/css">
	.st0{fill:#EAEAEA;}
</style>
<g id="OBJECTS">
	<g>
		<g>
			<path d="M92.5,47.2h-75c-0.6,0-1.1,0.5-1.1,1.1v35.4c0,4.7,3.8,8.6,8.6,8.6h60c4.7,0,8.6-3.8,8.6-8.6V48.3
				C93.6,47.7,93.1,47.2,92.5,47.2L92.5,47.2z"/>
			<path d="M85,20.5H25c-4.7,0-8.6,3.8-8.6,8.6v11.7c0,0.6,0.5,1.1,1.1,1.1h75c0.6,0,1.1-0.5,1.1-1.1V29.1
				C93.6,24.4,89.7,20.5,85,20.5L85,20.5z M29.3,35.5c-2.4,0-4.3-1.9-4.3-4.3s1.9-4.3,4.3-4.3s4.3,1.9,4.3,4.3S31.6,35.5,29.3,35.5z
				 M43.2,35.5c-2.4,0-4.3-1.9-4.3-4.3s1.9-4.3,4.3-4.3c2.4,0,4.3,1.9,4.3,4.3S45.6,35.5,43.2,35.5z"/>
		</g>
		<path class="st0" d="M30,72l2.6-2.6c0.7-0.7,0.7-1.9,0-2.6c-0.7-0.7-1.9-0.7-2.6,0l-2.6,2.6l-2.6-2.6c-0.7-0.7-1.9-0.7-2.6,0
			c-0.7,0.7-0.7,1.9,0,2.6l2.6,2.6l-2.6,2.6c-0.7,0.7-0.7,1.9,0,2.6c0.4,0.4,0.8,0.5,1.3,0.5c0.5,0,0.9-0.2,1.3-0.5l2.6-2.6l2.6,2.6
			c0.4,0.4,0.8,0.5,1.3,0.5s0.9-0.2,1.3-0.5c0.7-0.7,0.7-1.9,0-2.6L30,72L30,72z"/>
		<path class="st0" d="M43.3,72l2.6-2.6c0.7-0.7,0.7-1.9,0-2.6c-0.7-0.7-1.9-0.7-2.6,0l-2.6,2.6l-2.6-2.6c-0.7-0.7-1.9-0.7-2.6,0
			c-0.7,0.7-0.7,1.9,0,2.6l2.6,2.6l-2.6,2.6c-0.7,0.7-0.7,1.9,0,2.6c0.4,0.4,0.8,0.5,1.3,0.5c0.5,0,0.9-0.2,1.3-0.5l2.6-2.6l2.6,2.6
			c0.4,0.4,0.8,0.5,1.3,0.5c0.5,0,0.9-0.2,1.3-0.5c0.7-0.7,0.7-1.9,0-2.6L43.3,72L43.3,72z"/>
		<path class="st0" d="M56.6,72l2.6-2.6c0.7-0.7,0.7-1.9,0-2.6c-0.7-0.7-1.9-0.7-2.6,0L54,69.4l-2.6-2.6c-0.7-0.7-1.9-0.7-2.6,0
			c-0.7,0.7-0.7,1.9,0,2.6l2.6,2.6l-2.6,2.6c-0.7,0.7-0.7,1.9,0,2.6c0.4,0.4,0.8,0.5,1.3,0.5c0.5,0,0.9-0.2,1.3-0.5l2.6-2.6l2.6,2.6
			c0.4,0.4,0.8,0.5,1.3,0.5c0.5,0,0.9-0.2,1.3-0.5c0.7-0.7,0.7-1.9,0-2.6L56.6,72L56.6,72z"/>
		<path class="st0" d="M70,72.1l2.6-2.6c0.7-0.7,0.7-1.9,0-2.6c-0.7-0.7-1.9-0.7-2.6,0l-2.6,2.6l-2.6-2.6c-0.7-0.7-1.9-0.7-2.6,0
			c-0.7,0.7-0.7,1.9,0,2.6l2.6,2.6l-2.6,2.6c-0.7,0.7-0.7,1.9,0,2.6c0.4,0.4,0.8,0.5,1.3,0.5c0.5,0,0.9-0.2,1.3-0.5l2.6-2.6l2.6,2.6
			c0.4,0.4,0.8,0.5,1.3,0.5s0.9-0.2,1.3-0.5c0.7-0.7,0.7-1.9,0-2.6L70,72.1L70,72.1z"/>
		<path class="st0" d="M83.7,72.1l2.6-2.6c0.7-0.7,0.7-1.9,0-2.6c-0.7-0.7-1.9-0.7-2.6,0l-2.6,2.6l-2.6-2.6c-0.7-0.7-1.9-0.7-2.6,0
			c-0.7,0.7-0.7,1.9,0,2.6l2.6,2.6l-2.6,2.6c-0.7,0.7-0.7,1.9,0,2.6c0.4,0.4,0.8,0.5,1.3,0.5s0.9-0.2,1.3-0.5l2.6-2.6l2.6,2.6
			c0.4,0.4,0.8,0.5,1.3,0.5s0.9-0.2,1.3-0.5c0.7-0.7,0.7-1.9,0-2.6L83.7,72.1L83.7,72.1z"/>
	</g>
</g>
</svg>
