<?xml version="1.0" encoding="utf-8"?>
<!-- Generator: Adobe Illustrator 27.0.0, SVG Export Plug-In . SVG Version: 6.00 Build 0)  -->
<svg version="1.1" id="Layer_2_00000077322832984970302740000009697002260194348939_"
	 xmlns="http://www.w3.org/2000/svg" xmlns:xlink="http://www.w3.org/1999/xlink" x="0px" y="0px" viewBox="0 0 110 110"
	 style="enable-background:new 0 0 110 110;" xml:space="preserve">
<g id="OBJECTS">
	<g>
		<path d="M95.7,88.4l-3.7-11.2c-0.2-0.6-0.1-1.3,0.2-1.9c2.8-5.4,4-11.9,2.7-18.6c-1.9-10.4-9.5-19-19.3-22.3
			c2.5,6.1,3.3,13,2,19.8C75,67.9,64,78.8,50.1,81.3c-1.8,0.3-3.6,0.5-5.4,0.5c4.2,4.5,9.8,7.8,16.1,8.9c6.7,1.2,13.1,0.1,18.5-2.7
			c0.6-0.3,1.3-0.4,1.9-0.2l11.2,3.7C94.4,92.2,96.3,90.3,95.7,88.4L95.7,88.4z"/>
		<path d="M38.2,18.8c-11.7,2.2-21,11.6-23.1,23.3c-1.2,6.8-0.1,13.2,2.7,18.6c0.3,0.6,0.4,1.3,0.2,1.9l-3.7,11.2
			c-0.7,2,1.2,3.8,3.2,3.2l11.2-3.7c0.6-0.2,1.3-0.1,1.9,0.2c5.4,2.8,11.8,3.9,18.5,2.7c11.6-2.1,21.1-11.4,23.3-23
			C76.3,32.6,58.7,15,38.2,18.8z M45.7,56.5H31.2c-1.4,0-2.6-1.2-2.6-2.6c0-1.4,1.2-2.6,2.6-2.6h14.5c1.4,0,2.6,1.2,2.6,2.6
			C48.3,55.4,47.1,56.5,45.7,56.5z M56,46.2H31.2c-1.4,0-2.6-1.2-2.6-2.6s1.2-2.6,2.6-2.6H56c1.4,0,2.6,1.2,2.6,2.6
			S57.5,46.2,56,46.2z"/>
	</g>
</g>
</svg>
