<?xml version="1.0" encoding="utf-8"?>
<!-- Generator: Adobe Illustrator 27.0.0, SVG Export Plug-In . SVG Version: 6.00 Build 0)  -->
<svg version="1.1" id="Layer_2_00000094580916978289990910000001729858418883225008_"
	 xmlns="http://www.w3.org/2000/svg" xmlns:xlink="http://www.w3.org/1999/xlink" x="0px" y="0px" viewBox="0 0 110 110"
	 style="enable-background:new 0 0 110 110;" xml:space="preserve">
<g id="OBJECTS">
	<g>
		<path d="M109.7,39.4L89.5,17.9c-0.5-0.5-1.2-0.5-1.7-0.1l-8.5,8c-0.5,0.5-0.5,1.2-0.1,1.7l20.2,21.5c0.5,0.5,1.2,0.5,1.7,0.1
			l8.5-8C110.1,40.7,110.1,39.9,109.7,39.4z M102.3,41.8c-1.1,1-2.7,1-3.7-0.1c-1-1.1-1-2.7,0.1-3.7c1.1-1,2.7-1,3.7,0.1
			S103.4,40.8,102.3,41.8z M20.8,20.9c-0.5-0.4-1.3-0.3-1.7,0.2L0.2,45.4c-0.4,0.5-0.3,1.3,0.2,1.7l9.3,7.2c0.5,0.4,1.3,0.3,1.7-0.2
			l18.9-24.3c0.4-0.5,0.3-1.3-0.2-1.7L20.8,20.9z M11.9,46.2c-0.9,1.2-2.6,1.4-3.7,0.5c-1.2-0.9-1.4-2.6-0.5-3.7
			c0.9-1.2,2.6-1.4,3.7-0.5S12.8,45,11.9,46.2z"/>
		<path d="M82.1,69.7L61.4,53.5L57.6,57c-5.3,4.8-10.2,6.1-13.8,6.1c-0.9,0-1.8-0.1-2.5-0.2c-5-0.9-8.4-4.1-9.9-6.8
			c-1.9-3-1.3-6.7,1.3-9.2l14.9-13.5c-1.8-1.3-3.8-2-5.9-2c-2.9,0-5.8,1.3-7.7,3.8L19.5,53.9c-1.2,1.5-1.7,3.4-1.5,5.4l0.9,7.6
			c0.2,1.9,1.2,3.7,2.7,4.8l25.5,19.9c0.7,0.6,1.6,0.8,2.4,0.8c1.1,0,2.1-0.4,2.9-1.3l1.1-1.3c1.5-1.6,1.3-4.2-0.4-5.6l4.3,3.6
			c0.7,0.6,1.6,0.9,2.5,0.9c1,0,2-0.4,2.7-1.1l1.3-1.3c1.7-1.6,1.6-4.3-0.2-5.8l3.2,2.6c0.7,0.6,1.6,0.9,2.5,0.9c1,0,2-0.4,2.7-1.1
			l1.2-1.1c1.6-1.6,1.6-4.2-0.2-5.7l2.1,1.8c0.7,0.6,1.7,1,2.6,1c1.1,0,2.2-0.5,3-1.4l1.8-2.2C84.2,73.6,83.9,71.1,82.1,69.7
			L82.1,69.7z M92.3,50.3L74.8,32.5c-0.8-0.8-1.8-1.3-2.8-1.4l-9-1.2c-1.4-0.2-2.8,0.3-3.9,1.2L57,33L36.8,51.4
			c-0.2,0.2-0.7,0.8-0.3,1.5l0.1,0.2c0.8,1.4,2.7,3.3,5.7,3.8c3.5,0.6,7.4-0.9,11.2-4.4l7.5-6.9l23.7,18.5l7.4-6.9
			C94.1,55.3,94.1,52.3,92.3,50.3L92.3,50.3z"/>
	</g>
</g>
</svg>
