<?xml version="1.0" encoding="utf-8"?>
<!-- Generator: Adobe Illustrator 27.0.0, SVG Export Plug-In . SVG Version: 6.00 Build 0)  -->
<svg version="1.1" id="Layer_2_00000106846236411101023390000010581937142716132796_"
	 xmlns="http://www.w3.org/2000/svg" xmlns:xlink="http://www.w3.org/1999/xlink" x="0px" y="0px" viewBox="0 0 110 110"
	 style="enable-background:new 0 0 110 110;" xml:space="preserve">
<g id="OBJECTS">
	<g>
		<path d="M15.8,40.6c-2.4,0-4.4,2-4.4,4.4v37.7c0,2.4,2,4.4,4.4,4.4s4.4-2,4.4-4.4V45C20.2,42.6,18.2,40.6,15.8,40.6z"/>
		<path d="M92.2,20.6H30.2c-2.4,0-4.4,2.1-4.4,4.6v55.3c0,3.7,3,6.7,6.7,6.7h55.4c4.9,0,8.9-4.1,8.9-9.2V25.2
			C96.7,22.7,94.7,20.6,92.2,20.6z M65.6,40.6c0-4.9,4-8.9,8.9-8.9l0,0c4.9,0,8.9,4,8.9,8.9l0,0c0,4.9-4,8.9-8.9,8.9l0,0
			C69.6,49.4,65.6,45.5,65.6,40.6L65.6,40.6z M40.1,34.5h13.3c1.5,0,2.8,1.2,2.8,2.8c0,1.5-1.2,2.8-2.8,2.8H40.1
			c-1.5,0-2.8-1.2-2.8-2.8C37.4,35.7,38.6,34.5,40.1,34.5z M40.1,45.6h13.3c1.5,0,2.8,1.2,2.8,2.8s-1.2,2.8-2.8,2.8H40.1
			c-1.5,0-2.8-1.2-2.8-2.8S38.6,45.6,40.1,45.6z M82.3,73.3H40.1c-1.5,0-2.8-1.2-2.8-2.8s1.2-2.8,2.8-2.8h42.1
			c1.5,0,2.8,1.2,2.8,2.8S83.8,73.3,82.3,73.3z M82.3,62.2H40.1c-1.5,0-2.8-1.2-2.8-2.8s1.2-2.8,2.8-2.8h42.1c1.5,0,2.8,1.2,2.8,2.8
			S83.8,62.2,82.3,62.2z"/>
	</g>
</g>
</svg>
