<?xml version="1.0" encoding="utf-8"?>
<!-- Generator: Adobe Illustrator 27.0.0, SVG Export Plug-In . SVG Version: 6.00 Build 0)  -->
<svg version="1.1" id="Layer_2_00000147199384784790944200000007716624869084541859_"
	 xmlns="http://www.w3.org/2000/svg" xmlns:xlink="http://www.w3.org/1999/xlink" x="0px" y="0px" viewBox="0 0 110 110"
	 style="enable-background:new 0 0 110 110;" xml:space="preserve">
<g id="OBJECTS">
	<g>
		<path d="M35.8,53.6c-2.2-2.2-5.8-2-7.8,0.4c-1.7,2.1-1.4,5.3,0.6,7.2l5.8,5.8c1.1,1.1,1.1,3,0,4.1c-1.1,1.1-3,1.1-4.1,0l-5.6-5.6
			c-2.1-2.1-3.3-4.9-3.5-7.9l0-13.6c0-3.3-2.9-6-6.3-5.6c-2.9,0.3-5.1,3-5.1,6v14c0,3.2,1.1,6.3,3.2,8.8l12.7,15.1
			c0.2,0.3,0.5,0.4,0.9,0.4l23.3,0c0.6,0,1.1-0.5,1.1-1.1v-6.9c0-3.6-1.4-7.1-4-9.6L35.8,53.6L35.8,53.6z M95,38.4
			c-3.4-0.3-6.3,2.3-6.3,5.6l0,13.6c-0.1,3-1.3,5.8-3.5,7.9l-5.6,5.6c-1.1,1.1-3,1.1-4.1,0s-1.1-3,0-4.1l5.8-5.8
			c1.9-1.9,2.3-5.1,0.6-7.2c-2-2.4-5.6-2.6-7.8-0.4L62.8,65c-2.6,2.6-4,6-4,9.6v6.9c0,0.6,0.5,1.1,1.1,1.1l23.3,0
			c0.3,0,0.6-0.1,0.9-0.4l12.7-15.1c2.1-2.5,3.2-5.6,3.2-8.8v-14C100.1,41.4,97.9,38.7,95,38.4L95,38.4z"/>
		<path d="M50.6,88.8H27.4c-0.6,0-1.1,0.5-1.1,1.1v4.5c0,0.6,0.5,1.1,1.1,1.1h23.3c0.6,0,1.1-0.5,1.1-1.1V90
			C51.8,89.3,51.2,88.8,50.6,88.8z M82.7,88.8H59.4c-0.6,0-1.1,0.5-1.1,1.1v4.5c0,0.6,0.5,1.1,1.1,1.1h23.3c0.6,0,1.1-0.5,1.1-1.1
			V90C83.8,89.3,83.3,88.8,82.7,88.8z M78.4,32.7C78.4,20.1,68.2,10,55.7,10S33,20.2,33,32.7s10.2,22.7,22.7,22.7
			S78.4,45.2,78.4,32.7L78.4,32.7z M54.2,28.6l5.2,2.7c3,1.5,4.6,4.7,4,8C63.1,42,61.4,44.1,59,45v1c0,1.6-1.3,2.8-2.8,2.8
			c-1.6,0-2.8-1.3-2.8-2.8v-0.8c-2.5-0.8-4.7-2.6-5.8-5.1c-0.6-1.4,0-3.1,1.5-3.7c1.4-0.6,3.1,0,3.7,1.5c0.6,1.4,2,2.2,3.5,2.1
			l0.3,0c1.1-0.2,1.4-1.1,1.4-1.5c0-0.3,0.1-1.5-1-2.1l-5.2-2.7c-3-1.5-4.6-4.8-4-8.2c0.6-3,2.7-5.2,5.6-5.9v-0.8
			c0-1.6,1.3-2.8,2.8-2.8c1.6,0,2.8,1.3,2.8,2.8v1.4c2,0.9,3.7,2.5,4.6,4.7c0.6,1.4,0,3.1-1.5,3.7s-3.1,0-3.7-1.5
			c-0.6-1.4-2-2.2-3.5-2.1c-1.3,0.1-1.6,1.1-1.7,1.5C53.2,26.9,53.1,28,54.2,28.6L54.2,28.6z"/>
	</g>
</g>
</svg>
