<?xml version="1.0" encoding="utf-8"?>
<!-- Generator: Adobe Illustrator 27.0.0, SVG Export Plug-In . SVG Version: 6.00 Build 0)  -->
<svg version="1.1" id="Layer_2_00000070099534955424721200000014150048301940440193_"
	 xmlns="http://www.w3.org/2000/svg" xmlns:xlink="http://www.w3.org/1999/xlink" x="0px" y="0px" viewBox="0 0 93.1 93.1"
	 style="enable-background:new 0 0 93.1 93.1;" xml:space="preserve">
<style type="text/css">
	.st0{fill:url(#SVGID_1_);}
	.st1{fill:url(#SVGID_00000042735581547416999590000004462326109772771515_);}
</style>
<g id="OBJECTS">
	<g>
		<linearGradient id="SVGID_1_" gradientUnits="userSpaceOnUse" x1="46.5931" y1="89.7153" x2="37.5931" y2="0.7153">
			<stop  offset="0" style="stop-color:#00A788"/>
			<stop  offset="0.51" style="stop-color:#2A8B93"/>
			<stop  offset="1" style="stop-color:#135693"/>
		</linearGradient>
		<path class="st0" d="M53.6,38.1c0-1.6-1.3-2.8-2.8-2.8H39.5c-1.6,0-2.8,1.3-2.8,2.8v39.5h16.9V38.1z M77.5,43.7
			c0-1.6-1.3-2.8-2.8-2.8H63.4c-1.6,0-2.8,1.3-2.8,2.8v33.8h16.9V43.7z M88.8,84.6H4.2c-2.3,0-4.2,1.9-4.2,4.2S1.9,93,4.2,93h84.6
			c2.3,0,4.2-1.9,4.2-4.2S91.2,84.6,88.8,84.6z M29.6,52.2c0-1.6-1.3-2.8-2.8-2.8H15.5c-1.6,0-2.8,1.3-2.8,2.8v25.4h16.9
			C29.6,77.5,29.6,52.2,29.6,52.2z"/>
		
			<linearGradient id="SVGID_00000042715467268122845600000016538890572221521342_" gradientUnits="userSpaceOnUse" x1="54.3939" y1="88.9265" x2="45.3939" y2="-7.353549e-02">
			<stop  offset="0" style="stop-color:#00A788"/>
			<stop  offset="0.51" style="stop-color:#2A8B93"/>
			<stop  offset="1" style="stop-color:#135693"/>
		</linearGradient>
		<path style="fill:url(#SVGID_00000042715467268122845600000016538890572221521342_);" d="M81.6,0L68.9,1.8c-2,0.3-2.9,2.8-1.4,4.2
			l3,3L60.2,19.2L43.4,6.5c-1.6-1.2-3.7-1.1-5.2,0.1l-26.8,22c-1.8,1.5-2.1,4.1-0.6,5.9c0.8,1,2.1,1.5,3.3,1.5c0.9,0,1.9-0.3,2.7-1
			L41,15.3l17.1,12.9c1.7,1.3,4,1.1,5.5-0.4L76.4,15l2,2c1.5,1.5,4,0.6,4.2-1.4l1.8-12.7C84.7,1.2,83.3-0.2,81.6,0L81.6,0z"/>
	</g>
</g>
</svg>
