<?xml version="1.0" encoding="utf-8"?>
<!-- Generator: Adobe Illustrator 27.0.0, SVG Export Plug-In . SVG Version: 6.00 Build 0)  -->
<svg version="1.1" id="Layer_1" xmlns="http://www.w3.org/2000/svg" xmlns:xlink="http://www.w3.org/1999/xlink" x="0px" y="0px"
	 viewBox="0 0 2500 2500" style="enable-background:new 0 0 2500 2500;" xml:space="preserve">
<style type="text/css">
	.st0{fill:#53AE94;}
	.st1{fill:#FFFFFF;}
	.st2{fill:#E9B500;}
	.st3{fill:#FEFEFE;}
	.st4{fill:#FEFDFC;}
</style>
<path class="st0" d="M1250,0c690.3,0,1250,559.7,1250,1250s-559.7,1250-1250,1250S0,1940.5,0,1250S559.6,0,1250,0"/>
<path class="st1" d="M1404.3,1083.4V897.5h425.2V614.2H671.6v283.3h425.3v185.8c-345.6,15.9-605.5,84.3-605.5,166.3
	s260,150.5,605.5,166.4v595.6h307.5V1416c345-15.9,604.3-84.3,604.3-166.2S1749.4,1099.4,1404.3,1083.4 M1404.4,1365.6v-0.1
	c-8.7,0.5-53.2,3.2-152.5,3.2c-79.3,0-135.2-2.2-154.8-3.3v0.2c-305.3-13.5-533.3-66.7-533.3-130.3c0-63.6,227.9-116.7,533.3-130.3
	v207.6c20,1.4,77.2,4.8,156.1,4.8c94.8,0,142.5-3.9,151.3-4.8V1105c304.8,13.6,532.1,66.8,532.1,130.2s-227.5,116.6-532.1,130.2"/>
<g id="BWIOUG_00000178913498887689283530000007794612777230176661_">
	<g>
		<path class="st2" d="M3.9,395.1c0-13.9,0-27.9,0-41.8c1.1-0.7,0.7-1.7,0.7-2.7c2-33.3,8.4-65.8,19.1-97.4
			C70.1,116.6,190.8,18.7,334.2,1.3c49.2-6,97.7-2.4,145.5,10.8c152.7,42.2,262.6,176.5,273.9,335.1c4.4,61.6-5.9,120.9-30.6,177.6
			c-55,125.8-176.3,212.4-312.5,223.2c-4.1,0.3-8.2-0.1-12.2,1.3c-13,0-25.9,0-38.9,0c-0.8-1.1-2-0.6-3-0.7
			c-33.4-2-66.1-8.3-97.8-19.1c-66.1-22.7-121.9-60.7-166.8-114.2C41,554.5,12.2,484.4,5.2,405.4C4.9,402,5.4,398.4,3.9,395.1z
			 M330.3,452.5c0,15.5,0.1,31-0.1,46.5c0,2.4,0.6,3.7,2.7,4.9c14.7,8.5,29.3,17.1,43.9,25.7c1.9,1.1,3.3,1.1,5.3,0
			c14.4-8.5,28.8-17,43.2-25.3c2.3-1.3,3.2-2.7,3.2-5.4c-0.1-30.5,0-61.1-0.1-91.6c0-3.2,0.9-4.9,3.7-6.6c26-15.1,52-30.4,78-45.6
			c2.3-1.3,3.1-2.8,3.1-5.5c-0.2-17.2-0.3-34.5-0.4-51.7c0-2.3-0.8-3.5-2.7-4.6c-14.6-8.5-29.3-17.1-43.8-25.8
			c-1.9-1.2-3.3-1.1-5.2,0c-26.3,15.6-52.7,31.1-79,46.8c-2.2,1.3-3.7,1.2-5.8,0c-26.1-15.6-52.2-31-78.3-46.6
			c-2-1.2-3.4-1.4-5.6-0.1c-14.5,8.7-29.1,17.3-43.8,25.8c-2.1,1.2-2.8,2.5-2.8,4.9c0.1,17.2,0.1,34.5,0,51.7c0,2.6,0.9,3.8,3.1,5.1
			c26.1,15.2,52.2,30.6,78.3,45.8c2.5,1.5,3.2,3,3.2,5.8C330.2,422,330.3,437.2,330.3,452.5z M294.9,580.8c0-18.6-0.1-36.4,0.1-54.2
			c0-2.8-0.8-4.3-3.2-5.8c-25.9-15.1-51.7-30.4-77.6-45.5c-2.8-1.7-3.7-3.4-3.7-6.6c0-30.4-0.2-60.8-0.2-91.2c0-2.8-0.9-4.3-3.3-5.7
			c-14.1-8.2-28.1-16.6-42.2-24.9c-1-0.6-2-2-3.1-1.2c-1,0.7-0.4,2.3-0.4,3.4c0,49.8,0,99.6-0.1,149.5c0,2.8,0.9,4.3,3.3,5.7
			c34.2,20,68.4,40,102.5,60.1C276,569.8,285.2,575.1,294.9,580.8z M463.7,580.6c1.1-0.5,1.7-0.7,2.2-1
			c43.1-25.3,86.2-50.6,129.4-75.9c2-1.1,2.3-2.5,2.3-4.5c0-50.2,0-100.4,0-150.7c0-1,0.6-2.5-0.6-3c-1-0.5-2,0.7-2.9,1.3
			c-14.1,8.3-28.1,16.7-42.2,24.9c-2.5,1.4-3.5,3-3.5,6c0,30.5-0.2,61.1-0.2,91.6c0,2.8-0.8,4.3-3.2,5.7
			c-26.1,15.2-52.2,30.6-78.2,46c-1.4,0.8-3,1.4-2.9,3.6C463.8,543.2,463.7,561.6,463.7,580.6z M245.8,196
			c15.6,9.2,30.8,18.2,46,27.3c2.3,1.4,3.9,1.4,6.2,0c26-15.5,52-30.8,78-46.3c2.4-1.4,4.1-1.4,6.5,0c26.2,15.6,52.5,31,78.7,46.6
			c1.9,1.1,3.3,1.2,5.2,0c7-4.3,14-8.3,21.1-12.5c8.3-4.9,16.6-9.9,25.2-15c-0.9-0.7-1.5-1.1-2.1-1.5c-43-25.3-85.9-50.6-128.9-75.9
			c-2-1.2-3.4-0.9-5.2,0.2c-38.7,22.9-77.5,45.7-116.2,68.6C255.5,190.3,250.8,193,245.8,196z M548,332.2c1.1-0.5,1.5-0.6,1.9-0.9
			c15.1-8.9,30.2-17.8,45.4-26.6c2-1.1,2.1-2.6,2.1-4.5c0-17-0.1-33.9,0.1-50.9c0-2.9-1-4.3-3.4-5.7c-14.4-8.3-28.7-16.6-42.9-25.2
			c-2.5-1.5-4.2-1.4-6.6,0.1c-7.9,4.8-15.9,9.5-23.9,14.2c-7.1,4.2-14.2,8.4-21.3,12.7c0.8,1.5,2.1,1.8,3.1,2.4
			c14.3,8.5,28.5,16.9,42.8,25.3c1.9,1.1,2.7,2.3,2.6,4.6c-0.1,10.4-0.1,20.8-0.1,31.1C548,316.4,548,324,548,332.2z M259,245.2
			c-0.2-0.1-0.5-0.3-0.9-0.4c-15.3-9-30.7-18-45.9-27.1c-1.9-1.1-3.1-0.4-4.6,0.5c-14.6,8.6-29.1,17.3-43.8,25.8
			c-2.1,1.2-2.8,2.5-2.8,4.9c0.1,17.1,0.1,34.2,0,51.3c0,2.6,1,3.9,3.1,5.1c9.5,5.5,18.9,11.1,28.3,16.7c5.7,3.4,11.5,6.8,17.7,10.4
			c0-2,0-3.3,0-4.6c0-16.1,0.2-32.2-0.1-48.3c-0.1-3.8,1.3-5.6,4.3-7.4c14-8.1,28-16.3,41.9-24.6C257.2,246.9,258.4,246.7,259,245.2
			z M330.2,543.7c0,19,0,37.3,0,55.6c0,2,1,2.7,2.4,3.6c14.6,8.6,29.2,17.2,43.7,25.9c2.1,1.3,3.7,1.3,5.9,0
			c14.5-8.7,29.1-17.3,43.8-25.8c1.9-1.1,2.6-2.4,2.6-4.6c-0.1-17.2,0-34.4-0.1-51.6c0-0.9,0.5-1.9-0.6-2.7c-1,0.6-2.1,1.2-3.1,1.8
			c-14.3,8.4-28.6,16.8-42.8,25.3c-1.9,1.1-3.3,1.2-5.2,0c-5-3.2-10.2-6.1-15.4-9.2C351.1,556,340.9,550,330.2,543.7z M330.1,245.6
			c15.8,9.3,30.9,18.2,45.9,27.2c2.3,1.4,4,1.4,6.2,0c13.9-8.3,27.9-16.5,41.9-24.7c1.3-0.8,2.9-1.2,3.8-2.9
			c-15.8-9.3-31.5-18.5-47.1-27.7c-1.6-1-2.7-0.4-4,0.3c-7.4,4.4-14.9,8.8-22.3,13.2C346.6,235.8,338.7,240.5,330.1,245.6z
			 M463.7,481c1-0.4,1.6-0.6,2.1-0.9c15-8.8,30-17.6,45.1-26.3c1.9-1.1,1.9-2.5,1.9-4.3c0-17.2,0-34.4,0-51.6c0-0.9,0.4-1.9-0.7-3
			c-15.6,9.3-31.3,18.6-47,27.8c-1.2,0.7-1.3,1.6-1.3,2.7C463.7,443.9,463.7,462.2,463.7,481z M294.4,481c0.3-0.6,0.4-0.8,0.4-1
			c0-18.2,0-36.4,0.1-54.5c0-1.8-1.1-2.5-2.4-3.3c-14.7-8.7-29.4-17.3-44-26.1c-2.1-1.3-2.8-1.2-2.8,1.5c0.1,17.4,0.1,34.9,0,52.3
			c0,2,0.6,3,2.3,4c13.2,7.6,26.3,15.4,39.4,23.1C289.8,478.4,292.1,479.6,294.4,481z"/>
		<path class="st3" d="M330.3,452.5c0-15.3-0.1-30.5,0.1-45.8c0-2.7-0.7-4.3-3.2-5.8c-26.1-15.2-52.2-30.6-78.3-45.8
			c-2.1-1.2-3.1-2.5-3.1-5.1c0.1-17.2,0.1-34.5,0-51.7c0-2.4,0.7-3.7,2.8-4.9c14.7-8.5,29.3-17.1,43.8-25.8c2.1-1.3,3.6-1,5.6,0.1
			c26.1,15.5,52.2,31,78.3,46.6c2.1,1.3,3.7,1.3,5.8,0c26.3-15.6,52.7-31.2,79-46.8c1.9-1.1,3.3-1.2,5.2,0
			c14.6,8.7,29.2,17.3,43.8,25.8c1.9,1.1,2.7,2.3,2.7,4.6c0,17.2,0.1,34.5,0.4,51.7c0,2.7-0.8,4.1-3.1,5.5
			c-26,15.2-51.9,30.5-78,45.6c-2.8,1.6-3.7,3.4-3.7,6.6c0.1,30.5,0,61.1,0.1,91.6c0,2.7-0.9,4.1-3.2,5.4
			c-14.5,8.3-28.9,16.8-43.2,25.3c-1.9,1.2-3.4,1.2-5.3,0c-14.6-8.6-29.2-17.2-43.9-25.7c-2.1-1.2-2.7-2.6-2.7-4.9
			C330.3,483.5,330.3,468,330.3,452.5z"/>
		<path class="st4" d="M294.9,580.8c-9.7-5.7-18.9-11-28-16.4c-34.2-20-68.3-40.1-102.5-60.1c-2.4-1.4-3.3-2.9-3.3-5.7
			c0.1-49.8,0.1-99.6,0.1-149.5c0-1.2-0.6-2.8,0.4-3.4c1.1-0.7,2.2,0.7,3.1,1.2c14.1,8.3,28.1,16.7,42.2,24.9
			c2.4,1.4,3.3,2.9,3.3,5.7c0,30.4,0.2,60.8,0.2,91.2c0,3.1,0.8,4.9,3.7,6.6c25.9,15.1,51.7,30.4,77.6,45.5c2.4,1.4,3.2,3,3.2,5.8
			C294.8,544.4,294.9,562.2,294.9,580.8z"/>
		<path class="st4" d="M463.7,580.6c0-19,0-37.4,0-55.8c0-2.3,1.5-2.8,2.9-3.6c26.1-15.3,52.1-30.7,78.2-46c2.5-1.4,3.2-2.9,3.2-5.7
			c0-30.5,0.2-61.1,0.2-91.6c0-3,1-4.6,3.5-6c14.1-8.2,28.2-16.6,42.2-24.9c0.9-0.5,1.8-1.7,2.9-1.3c1.2,0.5,0.6,2,0.6,3
			c0,50.2,0,100.4,0,150.7c0,2-0.3,3.3-2.3,4.5c-43.2,25.2-86.3,50.6-129.4,75.9C465.4,579.9,464.8,580.1,463.7,580.6z"/>
		<path class="st3" d="M245.8,196c5-2.9,9.7-5.7,14.4-8.5c38.7-22.9,77.5-45.7,116.2-68.6c1.8-1.1,3.2-1.4,5.2-0.2
			c42.9,25.4,85.9,50.6,128.9,75.9c0.6,0.4,1.2,0.8,2.1,1.5c-8.6,5.1-16.9,10-25.2,15c-7,4.2-14.1,8.2-21.1,12.5
			c-1.9,1.2-3.3,1.1-5.2,0c-26.2-15.6-52.5-31-78.7-46.6c-2.4-1.4-4.1-1.4-6.5,0c-26,15.5-52,30.8-78,46.3c-2.3,1.4-3.9,1.4-6.2,0
			C276.6,214.1,261.4,205.2,245.8,196z"/>
		<path class="st4" d="M548,332.2c0-8.2,0-15.9,0-23.5c0-10.4-0.1-20.8,0.1-31.1c0-2.2-0.7-3.5-2.6-4.6
			c-14.3-8.4-28.6-16.8-42.8-25.3c-1-0.6-2.2-0.9-3.1-2.4c7.1-4.2,14.2-8.5,21.3-12.7c8-4.7,16-9.4,23.9-14.2c2.3-1.4,4-1.6,6.6-0.1
			c14.2,8.6,28.5,16.9,42.9,25.2c2.4,1.4,3.4,2.8,3.4,5.7c-0.2,17-0.1,33.9-0.1,50.9c0,1.9-0.2,3.4-2.1,4.5
			c-15.2,8.8-30.3,17.8-45.4,26.6C549.5,331.6,549.1,331.7,548,332.2z"/>
		<path class="st4" d="M259,245.2c-0.7,1.5-1.8,1.8-2.7,2.3c-14,8.2-27.9,16.5-41.9,24.6c-3.1,1.8-4.4,3.6-4.3,7.4
			c0.3,16.1,0.1,32.2,0.1,48.3c0,1.3,0,2.6,0,4.6c-6.3-3.7-12-7.1-17.7-10.4c-9.4-5.6-18.8-11.2-28.3-16.7c-2.1-1.2-3.1-2.5-3.1-5.1
			c0.1-17.1,0.1-34.2,0-51.3c0-2.4,0.8-3.7,2.8-4.9c14.6-8.5,29.2-17.2,43.8-25.8c1.5-0.9,2.7-1.6,4.6-0.5
			c15.3,9.1,30.6,18.1,45.9,27.1C258.5,244.9,258.8,245.1,259,245.2z"/>
		<path class="st3" d="M330.2,543.7c10.7,6.4,20.9,12.3,31,18.3c5.1,3,10.3,6,15.4,9.2c1.9,1.2,3.3,1.2,5.2,0
			c14.2-8.5,28.5-16.9,42.8-25.3c1-0.6,2.1-1.2,3.1-1.8c1.1,0.8,0.6,1.8,0.6,2.7c0,17.2,0,34.4,0.1,51.6c0,2.2-0.7,3.5-2.6,4.6
			c-14.6,8.5-29.2,17.1-43.8,25.8c-2.2,1.3-3.7,1.2-5.9,0c-14.5-8.7-29.1-17.3-43.7-25.9c-1.4-0.8-2.4-1.6-2.4-3.6
			C330.2,581,330.2,562.7,330.2,543.7z"/>
		<path class="st4" d="M330.1,245.6c8.6-5.1,16.5-9.8,24.4-14.5c7.4-4.4,14.9-8.8,22.3-13.2c1.3-0.8,2.4-1.3,4-0.3
			c15.6,9.3,31.3,18.4,47.1,27.7c-0.9,1.7-2.5,2.1-3.8,2.9c-13.9,8.3-28,16.4-41.9,24.7c-2.3,1.4-3.9,1.4-6.2,0
			C361.1,263.8,345.9,254.9,330.1,245.6z"/>
		<path class="st4" d="M463.7,481c0-18.9,0-37.2,0-55.5c0-1.2,0.2-2.1,1.3-2.7c15.7-9.3,31.4-18.6,47-27.8c1.1,1,0.7,2.1,0.7,3
			c0,17.2,0,34.4,0,51.6c0,1.7,0,3.2-1.9,4.3c-15.1,8.7-30.1,17.5-45.1,26.3C465.3,480.4,464.7,480.6,463.7,481z"/>
		<path class="st4" d="M294.4,481c-2.3-1.3-4.6-2.6-6.9-3.9c-13.1-7.7-26.2-15.4-39.4-23.1c-1.7-1-2.4-2-2.3-4
			c0.1-17.4,0.1-34.9,0-52.3c0-2.7,0.7-2.8,2.8-1.5c14.6,8.7,29.3,17.4,44,26.1c1.3,0.8,2.4,1.4,2.4,3.3
			c-0.1,18.2-0.1,36.4-0.1,54.5C294.8,480.2,294.7,480.4,294.4,481z"/>
	</g>
</g>
</svg>
