<?xml version="1.0" encoding="utf-8"?>
<!-- Generator: Adobe Illustrator 27.0.0, SVG Export Plug-In . SVG Version: 6.00 Build 0)  -->
<svg version="1.1" id="Layer_2_00000039097434543902513460000003025762096526179971_"
	 xmlns="http://www.w3.org/2000/svg" xmlns:xlink="http://www.w3.org/1999/xlink" x="0px" y="0px" viewBox="0 0 110 99.2"
	 style="enable-background:new 0 0 110 99.2;" xml:space="preserve">
<style type="text/css">
	.st0{fill:#FFFFFF;}
</style>
<g id="OBJECTS">
	<g>
		<path class="st0" d="M110,71c0-15.6-12.6-28.2-28.2-28.2S53.6,55.4,53.6,71s12.6,28.2,28.2,28.2S110,86.6,110,71z M80,66l6.5,3.3
			c3.7,1.9,5.7,5.8,5,9.9c-0.5,3.3-2.7,5.9-5.6,7.1v1.2c0,1.9-1.6,3.5-3.5,3.5s-3.5-1.6-3.5-3.5v-0.9c-3.2-0.9-5.8-3.2-7.2-6.4
			c-0.8-1.8,0-3.9,1.8-4.6c1.8-0.8,3.9,0,4.6,1.8c0.7,1.7,2.5,2.8,4.3,2.6l0.3,0c1.4-0.2,1.7-1.4,1.8-1.8c0.1-0.4,0.2-1.8-1.3-2.6
			l-6.5-3.3c-3.7-1.9-5.7-6-4.9-10.2c0.7-3.8,3.4-6.5,7-7.4v-1c0-2,1.6-3.5,3.5-3.5s3.5,1.6,3.5,3.5v1.7c2.5,1.1,4.6,3.2,5.8,5.8
			c0.8,1.8,0,3.9-1.8,4.6c-1.8,0.8-3.9,0-4.6-1.8c-0.7-1.7-2.5-2.7-4.3-2.6c-1.6,0.2-2,1.4-2.1,1.9C78.7,63.8,78.5,65.2,80,66L80,66
			z"/>
		<path class="st0" d="M87.4,0H76.1c-3.1,0-5.6,2.5-5.6,5.6s-2.5,5.6-5.6,5.6s-5.6-2.5-5.6-5.6S56.7,0,53.6,0H39.5
			c-3.1,0-5.6,2.5-5.6,5.6s-2.5,5.6-5.6,5.6s-5.6-2.5-5.6-5.6S20,0,16.9,0H5.6C2.5,0,0,2.5,0,5.6v70.5c0,3.1,2.5,5.6,5.6,5.6h42.7
			C46.9,78,46,73.9,46,69.6c0-18.2,14.7-32.9,32.9-32.9c5.1,0,9.8,1.2,14.1,3.2V5.6C93,2.5,90.5,0,87.4,0L87.4,0z M16.9,68.2
			c-3.1,0-5.6-2.5-5.6-5.6s2.5-5.6,5.6-5.6s5.6,2.5,5.6,5.6C22.6,65.6,20,68.2,16.9,68.2z M16.9,51.2c-3.1,0-5.6-2.5-5.6-5.6
			s2.5-5.6,5.6-5.6s5.6,2.5,5.6,5.6S20,51.2,16.9,51.2z M33.8,68.2c-3.1,0-5.6-2.5-5.6-5.6s2.5-5.6,5.6-5.6s5.6,2.5,5.6,5.6
			C39.5,65.6,37,68.2,33.8,68.2z M33.8,51.2c-3.1,0-5.6-2.5-5.6-5.6s2.5-5.6,5.6-5.6s5.6,2.5,5.6,5.6S37,51.2,33.8,51.2z M33.8,34.3
			c-3.1,0-5.6-2.5-5.6-5.6s2.5-5.6,5.6-5.6s5.6,2.5,5.6,5.6S37,34.3,33.8,34.3z M50.8,34.3c-3.1,0-5.6-2.5-5.6-5.6s2.5-5.6,5.6-5.6
			s5.6,2.5,5.6,5.6S53.9,34.3,50.8,34.3z"/>
	</g>
</g>
</svg>
