<?xml version="1.0" encoding="utf-8"?>
<!-- Generator: Adobe Illustrator 27.0.0, SVG Export Plug-In . SVG Version: 6.00 Build 0)  -->
<svg version="1.1" id="Layer_2_00000165920992834547708420000011606340885925801381_"
	 xmlns="http://www.w3.org/2000/svg" xmlns:xlink="http://www.w3.org/1999/xlink" x="0px" y="0px" viewBox="0 0 97.3 84.1"
	 style="enable-background:new 0 0 97.3 84.1;" xml:space="preserve">
<style type="text/css">
	.st0{fill:#FFFFFF;}
</style>
<g id="OBJECTS">
	<g>
		<path class="st0" d="M91.6,49.2c0,0.1,0,0.2,0,0.4c0,0.1,0,0.2,0,0.3V49.2z M89.2,27.7H63.4c-3.1,0-5.6-2.5-5.6-5.6V11.3
			C57.8,5,52.5-0.2,46.1,0c-3,0.1-5.3,2.7-5.3,5.6v11.3c0,8-11.3,13.6-11.3,19.3v36.1c0,2.1,1.1,4,3,5c1,0.5,2.2,1.2,3.5,1.9
			c6.2,3.3,13,5,20,5h21.8c4.5,0,8.1-3.6,8.1-8.1v-0.8c0-1.3-0.4-2.6-0.9-3.7c2.3-1.4,3.8-3.9,3.8-6.8v-2.2c0-2.3-0.9-4.3-2.5-5.8
			c3-1.1,5.1-3.9,5.2-7.2c-0.1-1.9-0.8-3.7-2-5c4.3-0.2,7.7-3.7,7.7-8v-0.8C97.3,31.3,93.7,27.7,89.2,27.7L89.2,27.7z"/>
		<path class="st0" d="M21.1,30.5H1.4C0.6,30.5,0,31.2,0,32v45.1c0,0.8,0.6,1.4,1.4,1.4h19.7c0.8,0,1.4-0.6,1.4-1.4V32
			C22.6,31.2,21.9,30.5,21.1,30.5z M11.3,70C8.9,70,7,68.1,7,65.8s1.9-4.2,4.2-4.2s4.2,1.9,4.2,4.2C15.5,68.1,13.6,70,11.3,70z"/>
	</g>
</g>
</svg>
