<?xml version="1.0" encoding="utf-8"?>
<!-- Generator: Adobe Illustrator 27.0.0, SVG Export Plug-In . SVG Version: 6.00 Build 0)  -->
<svg version="1.1" id="Layer_2_00000078010655435656874290000018265926889651293850_"
	 xmlns="http://www.w3.org/2000/svg" xmlns:xlink="http://www.w3.org/1999/xlink" x="0px" y="0px" viewBox="0 0 93.1 93.1"
	 style="enable-background:new 0 0 93.1 93.1;" xml:space="preserve">
<style type="text/css">
	.st0{fill:#FFFFFF;}
</style>
<g id="OBJECTS">
	<g>
		<path class="st0" d="M53.6,38.1c0-1.6-1.3-2.8-2.8-2.8H39.5c-1.6,0-2.8,1.3-2.8,2.8v39.5h16.9V38.1z M77.5,43.7
			c0-1.6-1.3-2.8-2.8-2.8H63.4c-1.6,0-2.8,1.3-2.8,2.8v33.8h16.9V43.7z M88.8,84.6H4.2c-2.3,0-4.2,1.9-4.2,4.2s1.9,4.2,4.2,4.2h84.6
			c2.3,0,4.2-1.9,4.2-4.2S91.2,84.6,88.8,84.6z M29.6,52.2c0-1.6-1.3-2.8-2.8-2.8H15.5c-1.6,0-2.8,1.3-2.8,2.8v25.4h16.9
			C29.6,77.5,29.6,52.2,29.6,52.2z"/>
		<path class="st0" d="M81.6,0L68.9,1.8c-2,0.3-2.9,2.8-1.4,4.2L70.5,9L60.2,19.2L43.4,6.5c-1.6-1.2-3.7-1.1-5.2,0.1l-26.8,22
			c-1.8,1.5-2.1,4.1-0.6,5.9c0.8,1,2.1,1.5,3.3,1.5c0.9,0,1.9-0.3,2.7-1L41,15.3l17.1,12.9c1.7,1.3,4,1.1,5.5-0.4L76.4,15l2,2
			c1.5,1.5,4,0.6,4.2-1.4l1.8-12.7C84.7,1.2,83.3-0.2,81.6,0L81.6,0z"/>
	</g>
</g>
</svg>
